<?xml version="1.0" encoding="UTF-8" standalone="no"?>
<!DOCTYPE svg PUBLIC "-//W3C//DTD SVG 1.1//EN" "http://www.w3.org/Graphics/SVG/1.1/DTD/svg11.dtd">
<svg width="77" height="49" viewBox="0 0 77 49" fill="none" xmlns="http://www.w3.org/2000/svg">
    <path d="M35.4664 21.0162L26.659 5.34746C26.2742 4.7 25.3245 4.70819 24.9561 5.36385L21.6834 11.6345C21.5115 11.9459 21.184 12.1344 20.8238 12.1344H13.4924C13.1404 12.1344 12.8211 12.3229 12.641 12.6262L3.23883 29.6115C2.95229 30.1032 2.96867 30.7179 3.27976 31.2015L6.51775 37.8433C6.7961 38.2777 7.27912 38.5318 7.7867 38.5318L15.2159 38.6764C15.7234 38.6764 16.1983 38.4224 16.4766 37.9962L20.7829 32.968C21.3641 32.0992 22.3384 31.5747 23.3781 31.5747H29.5142C29.8498 31.5747 30.1609 31.4026 30.341 31.1157L35.4418 22.057C35.6383 21.7374 35.6465 21.344 35.4582 21.0162H35.4664ZM27.0457 22.3381L22.3465 30.4683C21.9536 31.1567 21.2168 31.5747 20.4308 31.5747H12.0394C11.2862 31.5747 10.8114 30.7633 11.188 30.1077L20.5946 13.5851C20.963 12.9376 21.8963 12.9212 22.281 13.5605L27.0376 21.3382C27.2259 21.6497 27.234 22.0349 27.0539 22.3463L27.0457 22.3381Z" fill="url(#paint0_linear_140_113)"/>
    <path d="M37.5544 32.2698L42.9639 20.133H45.738L51.1649 32.2698H48.2174L43.7788 21.5548H44.8885L40.4325 32.2698H37.5544ZM40.2592 29.669L41.0047 27.5364H47.2465L48.0093 29.669H40.2592ZM52.3374 32.2698V30.4493L59.8448 21.3987L60.1916 22.4217H52.4761V20.133H62.6883V21.9535L55.1982 31.0041L54.8514 29.9811H62.9484V32.2698H52.3374ZM63.8869 32.2698L69.1057 25.0744V27.1203L64.1123 20.133H67.3026L70.7529 25.0051L69.4178 25.0224L72.8161 20.133H75.8676L70.9089 26.999V24.9877L76.1624 32.2698H72.9201L69.3485 27.1203H70.6315L67.1118 32.2698H63.8869Z" fill="#E6F1F2"/>
    <defs>
        <linearGradient id="paint0_linear_140_113" x1="26.2968" y1="3.49283" x2="6.39708" y2="38.6948" gradientUnits="userSpaceOnUse">
            <stop stop-color="#82F0FF"/>
            <stop offset="0.2" stop-color="#FFC6F0"/>
            <stop offset="0.846154" stop-color="#F51DA9"/>
        </linearGradient>
    </defs>
</svg>
